#!OML:ASF F:\VICON\USERDATA\INSTALL\rory3\rory3.ASF
:FULLY-SPECIFIED
:DEGREES
106
root 0.8899047379992924 17.780944087453406 47.217439245661026 -3.827519783564707 1.401765224811479 -0.039366158423892905
lfemur 1.4500478687019518 -2.6615675277236726 -23.107632676048638
ltibia 27.09123785023973
lfoot -17.206153710801523 -1.1785967454335486
ltoes -2.901105032598376
rfemur -30.519972282657605 -3.9800401299641903 22.520880179101205
rtibia 45.448809782656966
rfoot -4.418282118801206 -13.13259966316921
rtoes 2.045539211417978
lowerback 11.416159332315894 -0.882270901632167 -2.4151607992219235
upperback 0.6004348039151657 -1.366728035380456 1.3692778744025518
thorax -5.835507988489818 -0.5796365450134838 3.314636699028383
lowerneck -16.021665713984493 -3.422430019657669 -3.1341506388487126
upperneck 20.820015497148233 -4.684360098642062 3.1325985287928892
head 9.305641397297117 -2.081638475310121 0.9125449268915331
lclavicle 2.9974940699037766e-16 5.577210876413606e-17
lhumerus -27.72533869778588 1.9830439837498772 80.21454209343463
lradius 31.71038243406593
lwrist 10.980837943717628
lhand -29.106151455119388 22.39541642025519
lfingers 7.125020000000001
lthumb -2.626705163906506 51.629837145362
rclavicle 2.968092881666352e-16 5.5187643125780475e-17
rhumerus -33.35842456333208 -20.28614909948939 -78.48394407500672
rradius 29.76979073725387
rwrist 2.0084007544701636
rhand -17.392564368939357 22.485857237958736
rfingers 7.125020000000001
rthumb 8.91079349463103 -7.4001361902752825
107
root 0.8611586562368804 17.783510857476625 47.88944248864666 -3.2474894265544663 1.7529103891000415 0.3952193435166067
lfemur 4.225269537234573 -2.5258182759762224 -23.496137369011617
ltibia 25.184552352969607
lfoot -17.013583541347835 -1.4317639121008823
ltoes -4.748391019588595
rfemur -30.45385198107781 -2.8218749327041435 22.022802969697853
rtibia 35.22097607930644
rfoot -3.5643777916162067 -14.023676376269362
rtoes 0.14742603589372072
lowerback 11.14847915722539 -1.0632349225629647 -2.9586316828926
upperback 0.559660754980956 -1.672410427966495 1.3526616160776777
thorax -5.7290888200455585 -0.7118233103310345 3.7299051743606384
lowerneck -16.23574693444806 -3.4197105521186035 -3.165217913272749
upperneck 20.637860853259024 -4.66705219672433 3.1700632366347836
head 9.259965723094572 -2.0706260743080014 0.9380284801839318
lclavicle 2.987365383260968e-16 5.504466962111388e-17
lhumerus -26.69460525851818 0.8862330175389497 80.1857404977865
lradius 33.21264384938124
lwrist 11.206167150129108
lhand -29.668674330774497 21.42894769246741
lfingers 7.125020000000001
lthumb -3.0136043446330714 51.596620828197395
rclavicle 2.9690428902853675e-16 5.508380919417064e-17
rhumerus -34.0261809106041 -20.46432127192446 -77.9685503329067
rradius 29.45559981627041
rwrist 1.9778438421367408
rhand -17.128474591995932 22.276289381457534
rfingers 7.125020000000001
rthumb 9.183747303285786 -7.4237665421021735
108
root 0.8268838591127955 17.759830868377605 48.839452491445954 -2.6210098272860107 2.1822345754259627 1.2196064797770712
lfemur 6.918199675528226 -2.4681936972781293 -24.28974487810908
ltibia 23.070969359340324
lfoot -16.64412889406272 -1.9849170329189048
ltoes -6.361922129033125
rfemur -29.890890893108306 -1.1517115164271186 20.690952190818628
rtibia 26.095840873696517
rfoot -3.787747535449177 -14.800430019539688
rtoes -1.067708327499322
lowerback 10.595207469597922 -1.1897091630467471 -3.7162509376664996
upperback 0.5036133692363223 -1.9481863202807126 1.2114602086315216
thorax -5.45343113659681 -0.8358717834626099 4.214307298498433
lowerneck -16.261616056419136 -3.4340549708576957 -3.2495728474332695
upperneck 20.54719015121195 -4.676660162665055 3.2658667828014893
head 9.245246741713277 -2.0770305093236487 0.9791412121007603
lclavicle 2.987864731435129e-16 5.5080008153388964e-17
lhumerus -25.894876015632704 0.20163054134386948 80.01928896390943
lradius 34.524923756011255
lwrist 11.202492431227501
lhand -29.89168789314289 21.927754581345877
lfingers 7.125020000000001
lthumb -3.347987909404693 51.95085616849893
rclavicle 3.0101956092955567e-16 5.808336626324731e-17
rhumerus -34.870669506765864 -21.152018797699697 -77.23585165446723
rradius 28.40581353285028
rwrist 2.8831117158931074
rhand -16.989180109641797 23.11655839294759
rfingers 7.125020000000001
rthumb 9.299938766174183 -6.657965391777991
109
root 0.7866410284628322 17.752840096589875 48.88104569047744 -1.8410683757257553 3.140283124068304 1.5499249649124245
lfemur 9.607546288436446 -2.5933395776990267 -24.498006473294485
ltibia 20.904333492372338
lfoot -16.429811776023154 -3.448411983730279
ltoes -8.876703333506178
rfemur -28.64322968046337 1.2205276100138562 19.109440101625253
rtibia 18.802584606176186
rfoot -4.700969408003404 -15.083756649582195
rtoes -3.1348056208700106
lowerback 10.150581823425808 -1.4613950508561848 -4.00474872409337
upperback 0.24721759006676614 -2.349878984615332 1.1872081036966318
thorax -5.407639709158657 -1.04351524449596 4.423158099129591
lowerneck -16.40097313937218 -3.42872467972241 -3.243755404414115
upperneck 20.551980036286317 -4.682889971214868 3.268048933567584
head 9.262733079671762 -2.078622630264629 0.9762804721493215
lclavicle 2.9974772714162927e-16 5.577048327903044e-17
lhumerus -25.11737901685974 -0.07134183469677113 79.75770316812869
lradius 35.25014935476596
lwrist 11.292902105146666
lhand -29.544641733800646 21.279303055795438
lfingers 7.125020000000001
lthumb -2.895966125952272 51.30927451930264
rclavicle 2.9976102355462506e-16 5.721227458975585e-17
rhumerus -35.55576153912769 -22.18015389064542 -76.39275471932615
rradius 27.454413018822308
rwrist 3.721024437471393
rhand -17.047918610464816 23.640601604350994
rfingers 7.125020000000001
rthumb 9.209862149662504 -6.332981020858603
110
root 0.7190500811459349 17.687293338320334 48.89915849401992 -1.6989411249182962 4.091253229968507 1.3623599750929198
lfemur 11.49940810754627 -3.1974402346627313 -24.064656535299427
ltibia 20.61436107131083
lfoot -17.068239790574758 -4.814117150179049
ltoes -12.524049212393527
rfemur -27.54967310749784 3.6434229774561144 18.4652659063416
rtibia 15.898269697945626
rfoot -5.910827077287054 -14.253764520289092
rtoes -2.7897890094756637
lowerback 10.196527471966473 -1.7292804577389465 -4.190695358871201
upperback 0.2723768683535816 -2.764157209822997 1.3097028956739145
thorax -5.305688707370625 -1.2190206009598559 4.8841192851841555
lowerneck -16.447934635805606 -3.456636861449834 -3.278342589503538
upperneck 20.562940859591652 -4.721049650618213 3.266069425574166
head 9.283107999806308 -2.0909175048760793 0.979997557859708
lclavicle 2.9851337626855354e-16 5.488349742212476e-17
lhumerus -24.64250789696787 -0.05539275786675857 79.63356713225895
lradius 35.400795220850355
lwrist 11.084659419805153
lhand -29.578440373817028 21.00356911138972
lfingers 7.125020000000001
lthumb -2.8509178130731936 51.212155661124896
rclavicle 3.009920178261192e-16 5.806589906690044e-17
rhumerus -36.521584363312144 -23.375396651195693 -75.40500993989079
rradius 26.85035346860593
rwrist 4.2857749712260444
rhand -17.252468249430766 23.901606545108685
rfingers 7.125020000000001
rthumb 9.055970865302692 -5.797427927420957
